<svg width="85" height="73" xmlns="http://www.w3.org/2000/svg" xmlns:xlink="http://www.w3.org/1999/xlink" xml:space="preserve" overflow="hidden"><g><g><path d="M574.135 690.541 612.608 690.541 612.608 763.541 574.135 763.541Z" fill="#1F4E79" fill-rule="nonzero" fill-opacity="1" transform="matrix(1.00191 0 0 1 -575.233 -690.541)"/><path d="M578.081 704.351 585.973 704.351 585.973 713.23 578.081 713.23Z" fill="#FFFFFF" fill-rule="nonzero" fill-opacity="1" transform="matrix(1.00191 0 0 1 -575.233 -690.541)"/><path d="M588.932 705.338 597.811 705.338 597.811 713.23 588.932 713.23Z" fill="#FFFFFF" fill-rule="nonzero" fill-opacity="1" transform="matrix(1.00191 0 0 1 -575.233 -690.541)"/><path d="M600.77 705.338 608.662 705.338 608.662 713.23 600.77 713.23Z" fill="#FFFFFF" fill-rule="nonzero" fill-opacity="1" transform="matrix(1.00191 0 0 1 -575.233 -690.541)"/><path d="M578.081 715.203 585.973 715.203 585.973 723.095 578.081 723.095Z" fill="#FFFFFF" fill-rule="nonzero" fill-opacity="1" transform="matrix(1.00191 0 0 1 -575.233 -690.541)"/><path d="M588.932 715.203 597.811 715.203 597.811 723.095 588.932 723.095Z" fill="#FFFFFF" fill-rule="nonzero" fill-opacity="1" transform="matrix(1.00191 0 0 1 -575.233 -690.541)"/><path d="M600.77 715.203 608.662 715.203 608.662 723.095 600.77 723.095Z" fill="#FFFFFF" fill-rule="nonzero" fill-opacity="1" transform="matrix(1.00191 0 0 1 -575.233 -690.541)"/><path d="M578.081 726.054 585.973 726.054 585.973 733.946 578.081 733.946Z" fill="#FFFFFF" fill-rule="nonzero" fill-opacity="1" transform="matrix(1.00191 0 0 1 -575.233 -690.541)"/><path d="M588.932 726.054 597.811 726.054 597.811 733.946 588.932 733.946Z" fill="#FFFFFF" fill-rule="nonzero" fill-opacity="1" transform="matrix(1.00191 0 0 1 -575.233 -690.541)"/><path d="M600.77 726.054 608.662 726.054 608.662 733.946 600.77 733.946Z" fill="#FFFFFF" fill-rule="nonzero" fill-opacity="1" transform="matrix(1.00191 0 0 1 -575.233 -690.541)"/><path d="M578.081 736.905 585.973 736.905 585.973 744.797 578.081 744.797Z" fill="#FFFFFF" fill-rule="nonzero" fill-opacity="1" transform="matrix(1.00191 0 0 1 -575.233 -690.541)"/><path d="M588.932 736.905 597.811 736.905 597.811 744.797 588.932 744.797Z" fill="#FFFFFF" fill-rule="nonzero" fill-opacity="1" transform="matrix(1.00191 0 0 1 -575.233 -690.541)"/><path d="M600.77 736.905 608.662 736.905 608.662 744.797 600.77 744.797Z" fill="#FFFFFF" fill-rule="nonzero" fill-opacity="1" transform="matrix(1.00191 0 0 1 -575.233 -690.541)"/><path d="M578.081 746.77 585.973 746.77 585.973 755.649 578.081 755.649Z" fill="#FFFFFF" fill-rule="nonzero" fill-opacity="1" transform="matrix(1.00191 0 0 1 -575.233 -690.541)"/><path d="M588.932 746.77 597.811 746.77 597.811 755.649 588.932 755.649Z" fill="#FFFFFF" fill-rule="nonzero" fill-opacity="1" transform="matrix(1.00191 0 0 1 -575.233 -690.541)"/><path d="M600.77 746.77 608.662 746.77 608.662 755.649 600.77 755.649Z" fill="#FFFFFF" fill-rule="nonzero" fill-opacity="1" transform="matrix(1.00191 0 0 1 -575.233 -690.541)"/><path d="M578.081 693.5 585.973 693.5 585.973 701.392 578.081 701.392Z" fill="#FFFFFF" fill-rule="nonzero" fill-opacity="1" transform="matrix(1.00191 0 0 1 -575.233 -690.541)"/><path d="M588.932 693.5 597.811 693.5 597.811 701.392 588.932 701.392Z" fill="#FFFFFF" fill-rule="nonzero" fill-opacity="1" transform="matrix(1.00191 0 0 1 -575.233 -690.541)"/><path d="M600.77 693.5 608.662 693.5 608.662 701.392 600.77 701.392Z" fill="#FFFFFF" fill-rule="nonzero" fill-opacity="1" transform="matrix(1.00191 0 0 1 -575.233 -690.541)"/><path d="M618.527 729.014 654.041 729.014 654.041 761.568 618.527 761.568Z" fill="#1F4E79" fill-rule="nonzero" fill-opacity="1" transform="matrix(1.00191 0 0 1 -575.233 -690.541)"/><path d="M614.581 729.014 636.284 710.27 657.987 729.014Z" fill="#1F4E79" fill-rule="evenodd" fill-opacity="1" transform="matrix(1.00191 0 0 1 -575.233 -690.541)"/><path d="M624.446 750.716 631.351 750.716 631.351 761.568 624.446 761.568Z" fill="#FFFFFF" fill-rule="nonzero" fill-opacity="1" transform="matrix(1.00191 0 0 1 -575.233 -690.541)"/><path d="M640.23 751.703 648.122 751.703 648.122 755.649 640.23 755.649Z" fill="#FFFFFF" fill-rule="nonzero" fill-opacity="1" transform="matrix(1.00191 0 0 1 -575.233 -690.541)"/><path d="M624.446 735.919 633.324 735.919 633.324 741.838 624.446 741.838Z" fill="#FFFFFF" fill-rule="nonzero" fill-opacity="1" transform="matrix(1.00191 0 0 1 -575.233 -690.541)"/><path d="M640.23 735.919 648.122 735.919 648.122 741.838 640.23 741.838Z" fill="#FFFFFF" fill-rule="nonzero" fill-opacity="1" transform="matrix(1.00191 0 0 1 -575.233 -690.541)"/><path d="M642.203 713.23 651.081 713.23 651.081 723.095 642.203 723.095Z" fill="#1F4E79" fill-rule="nonzero" fill-opacity="1" transform="matrix(1.00191 0 0 1 -575.233 -690.541)"/></g></g></svg>