<svg width="720" height="721" xmlns="http://www.w3.org/2000/svg" xmlns:xlink="http://www.w3.org/1999/xlink" xml:space="preserve" overflow="hidden"><g transform="translate(420 5)"><g><g><g><g><path d="M101.299-5-221.311-5C-330.868-5-420 84.136-420 193.693L-420 516.303C-420 625.864-330.868 714.996-221.311 714.996L101.299 714.996C210.864 714.996 299.996 625.86 299.996 516.303L299.996 193.693C300 84.136 210.864-5 101.299-5ZM236.119 516.303C236.119 590.64 175.64 651.114 101.303 651.114L-221.311 651.114C-295.644 651.119-356.118 590.64-356.118 516.303L-356.118 193.693C-356.118 119.36-295.644 58.8815-221.311 58.8815L101.299 58.8815C175.635 58.8815 236.114 119.36 236.114 193.693L236.114 516.303Z" fill="#1F4E79" fill-rule="nonzero" fill-opacity="1"/><path d="M-60.0021 169.482C-162.302 169.482-245.527 252.707-245.527 355.006-245.527 457.302-162.302 540.523-60.0021 540.523 42.2977 540.523 125.523 457.302 125.523 355.006 125.523 252.707 42.2977 169.482-60.0021 169.482ZM-60.0021 476.637C-127.073 476.637-181.645 422.073-181.645 355.002-181.645 287.927-127.078 233.359-60.0021 233.359 7.07347 233.359 61.6411 287.927 61.6411 355.002 61.6411 422.073 7.06921 476.637-60.0021 476.637Z" fill="#1F4E79" fill-rule="nonzero" fill-opacity="1"/><path d="M133.303 115.314C120.995 115.314 108.905 120.297 100.213 129.028 91.478 137.716 86.4569 149.81 86.4569 162.161 86.4569 174.473 91.4822 186.564 100.213 195.294 108.901 203.982 120.995 209.007 133.303 209.007 145.654 209.007 157.706 203.982 166.437 195.294 175.167 186.564 180.15 174.469 180.15 162.161 180.15 149.81 175.167 137.716 166.437 129.028 157.749 120.297 145.654 115.314 133.303 115.314Z" fill="#1F4E79" fill-rule="nonzero" fill-opacity="1"/></g></g></g></g></g></svg>