<svg width="720" height="720" xmlns="http://www.w3.org/2000/svg" xmlns:xlink="http://www.w3.org/1999/xlink" xml:space="preserve" overflow="hidden"><g transform="translate(-1048 -20)"><g><path d="M1408.03 80.06C1242.37 80.06 1108.06 214.37 1108.06 380.03 1108.06 529.73 1217.74 653.81 1361.17 676.4L1361.17 466.76 1284.97 466.76 1284.97 380.03 1361.17 380.03 1361.17 313.94C1361.17 238.7 1405.96 197.21 1474.45 197.21 1507.27 197.21 1541.65 203.06 1541.65 203.06L1541.65 276.83 1503.73 276.83C1466.53 276.83 1454.89 299.99 1454.89 323.72L1454.89 379.97 1538.02 379.97 1524.73 466.7 1454.89 466.7 1454.89 676.34C1598.32 653.87 1708 529.76 1708 380.03 1708 214.37 1573.69 80.06 1408.03 80.06Z" fill="#1F4E79" fill-rule="nonzero" fill-opacity="1"/></g></g></svg>