<svg width="721" height="721" xmlns="http://www.w3.org/2000/svg" xmlns:xlink="http://www.w3.org/1999/xlink" xml:space="preserve" overflow="hidden"><defs><clipPath id="clip0"><rect x="262" y="5" width="720" height="720"/></clipPath><clipPath id="clip1"><rect x="262" y="5" width="720" height="720"/></clipPath><clipPath id="clip2"><rect x="262" y="5" width="720" height="720"/></clipPath></defs><g transform="translate(-261 -4)"><g><g clip-path="url(#clip0)"><g clip-path="url(#clip1)"><g clip-path="url(#clip2)"><path d="M965.679 138.288C954.368 143.305 942.739 147.539 930.857 150.977 944.925 135.067 955.65 116.347 962.198 95.8617 963.666 91.2699 962.144 86.2439 958.37 83.2408 954.601 80.2354 949.363 79.8754 945.213 82.335 919.978 97.3017 892.753 108.058 864.206 114.347 835.45 86.2485 796.393 70.2575 756.018 70.2575 670.79 70.2575 601.452 139.594 601.452 224.818 601.452 231.531 601.877 238.206 602.718 244.788 496.959 235.502 398.637 183.521 331.12 100.7 328.714 97.7476 325.007 96.1566 321.212 96.4609 317.414 96.7582 314.003 98.8996 312.084 102.191 298.39 125.688 291.151 152.563 291.151 179.907 291.151 217.149 304.447 252.485 327.936 280.096 320.794 277.622 313.863 274.531 307.249 270.859 303.697 268.882 299.363 268.913 295.835 270.935 292.305 272.958 290.092 276.679 289.999 280.746 289.982 281.431 289.982 282.116 289.982 282.811 289.982 338.402 319.902 388.451 365.645 415.73 361.715 415.337 357.788 414.768 353.886 414.023 349.863 413.254 345.727 414.664 343.014 417.732 340.297 420.798 339.398 425.071 340.65 428.973 357.581 481.835 401.174 520.717 453.873 532.572 410.164 559.948 360.18 574.288 307.708 574.288 296.76 574.288 285.748 573.644 274.972 572.369 269.618 571.733 264.499 574.894 262.676 579.985 260.853 585.078 262.785 590.757 267.34 593.677 334.748 636.898 412.691 659.742 492.739 659.742 650.103 659.742 748.546 585.536 803.417 523.284 871.84 445.661 911.082 342.917 911.082 241.399 911.082 237.158 911.017 232.875 910.887 228.606 937.883 208.268 961.125 183.653 980.037 155.362 982.91 151.065 982.599 145.386 979.271 141.431 975.947 137.473 970.408 136.193 965.679 138.288Z" fill="#1F4E79" fill-rule="nonzero" fill-opacity="1"/></g></g></g></g></g></svg>